<svg width="84" height="41" viewBox="0 0 84 41" fill="none" xmlns="http://www.w3.org/2000/svg">
<path d="M13.0782 12.5179H13.0753C10.6897 12.5179 8.75574 14.2616 8.75574 16.4124V16.415C8.75574 18.5658 10.6897 20.3094 13.0753 20.3094H13.0782C15.4638 20.3094 17.3978 18.5658 17.3978 16.415V16.4124C17.3978 14.2616 15.4638 12.5179 13.0782 12.5179Z" fill="#8E8F99"/>
<path d="M44.9614 11.273C44.9547 8.2855 43.6356 5.42211 41.2929 3.30942C38.9502 1.19673 35.7746 0.00678345 32.4611 0V0C29.1466 0.00542712 25.9696 1.19477 23.6257 3.30761C21.2817 5.42045 19.9619 8.28461 19.9551 11.273V27.7472C19.9551 27.7472 44.9586 25.2364 44.9614 11.2755V11.273Z" fill="#8E8F99"/>
<path d="M0 33.1543C0.00600975 35.233 0.924346 37.2251 2.55434 38.6952C4.18433 40.1653 6.39345 40.9939 8.69898 41C11.004 40.9939 13.2127 40.1657 14.8426 38.6961C16.4725 37.2265 17.3912 35.2351 17.398 33.1569V21.6938C17.398 21.6938 0 23.4422 0 33.1543ZM8.69898 35.2082C8.24844 35.2082 7.80802 35.0877 7.43341 34.862C7.0588 34.6364 6.76683 34.3156 6.59441 33.9403C6.422 33.565 6.37689 33.152 6.46479 32.7536C6.55268 32.3552 6.76964 31.9893 7.08822 31.702C7.40679 31.4148 7.81269 31.2192 8.25457 31.1399C8.69645 31.0607 9.15448 31.1014 9.57072 31.2568C9.98696 31.4123 10.3427 31.6755 10.593 32.0133C10.8433 32.351 10.9769 32.7481 10.9769 33.1543C10.9781 33.4247 10.92 33.6926 10.806 33.9427C10.692 34.1927 10.5244 34.4201 10.3128 34.6116C10.1011 34.8031 9.84963 34.9551 9.5727 35.0588C9.29576 35.1625 8.99885 35.2159 8.69898 35.2159V35.2082Z" fill="#8E8F99"/>
<path d="M24.6089 31.515V35.7806H23.73V31.515H24.6089ZM26.3081 33.3373V34.0228H24.3687V33.3373H26.3081ZM26.5132 31.515V32.2035H24.3687V31.515H26.5132ZM30.5269 33.5482V33.7504C30.5269 34.0746 30.4829 34.3656 30.395 34.6234C30.3071 34.8812 30.1831 35.101 30.0229 35.2826C29.8628 35.4623 29.6714 35.6 29.4487 35.6957C29.228 35.7914 28.9829 35.8392 28.7134 35.8392C28.4458 35.8392 28.2007 35.7914 27.978 35.6957C27.7573 35.6 27.5659 35.4623 27.4038 35.2826C27.2417 35.101 27.1157 34.8812 27.0259 34.6234C26.938 34.3656 26.894 34.0746 26.894 33.7504V33.5482C26.894 33.222 26.938 32.931 27.0259 32.6752C27.1138 32.4174 27.2378 32.1976 27.3979 32.016C27.5601 31.8344 27.7515 31.6957 27.9722 31.6C28.1948 31.5043 28.4399 31.4564 28.7075 31.4564C28.9771 31.4564 29.2222 31.5043 29.4429 31.6C29.6655 31.6957 29.8569 31.8344 30.0171 32.016C30.1792 32.1976 30.3042 32.4174 30.3921 32.6752C30.4819 32.931 30.5269 33.222 30.5269 33.5482ZM29.6392 33.7504V33.5424C29.6392 33.3158 29.6187 33.1166 29.5776 32.9447C29.5366 32.7728 29.4761 32.6283 29.396 32.5111C29.3159 32.3939 29.2183 32.306 29.103 32.2474C28.9878 32.1869 28.856 32.1566 28.7075 32.1566C28.5591 32.1566 28.4272 32.1869 28.312 32.2474C28.1987 32.306 28.1021 32.3939 28.022 32.5111C27.9438 32.6283 27.8843 32.7728 27.8433 32.9447C27.8022 33.1166 27.7817 33.3158 27.7817 33.5424V33.7504C27.7817 33.975 27.8022 34.1742 27.8433 34.348C27.8843 34.5199 27.9448 34.6654 28.0249 34.7845C28.105 34.9017 28.2026 34.9906 28.3179 35.0511C28.4331 35.1117 28.5649 35.142 28.7134 35.142C28.8618 35.142 28.9937 35.1117 29.1089 35.0511C29.2241 34.9906 29.3208 34.9017 29.3989 34.7845C29.4771 34.6654 29.5366 34.5199 29.5776 34.348C29.6187 34.1742 29.6392 33.975 29.6392 33.7504ZM33.3804 34.6644C33.3804 34.5883 33.3687 34.5199 33.3452 34.4594C33.3237 34.3969 33.2827 34.3402 33.2222 34.2894C33.1616 34.2367 33.0767 34.1849 32.9673 34.1342C32.8579 34.0834 32.7163 34.0306 32.5425 33.976C32.3491 33.9135 32.1655 33.8431 31.9917 33.765C31.8198 33.6869 31.6675 33.5961 31.5347 33.4926C31.4038 33.3871 31.3003 33.265 31.2241 33.1263C31.1499 32.9877 31.1128 32.8265 31.1128 32.6429C31.1128 32.4652 31.1519 32.3041 31.23 32.1595C31.3081 32.0131 31.4175 31.8881 31.5581 31.7845C31.6987 31.6791 31.8647 31.598 32.0562 31.5414C32.2495 31.4847 32.4614 31.4564 32.6919 31.4564C33.0063 31.4564 33.2808 31.5131 33.5151 31.6263C33.7495 31.7396 33.9312 31.8949 34.0601 32.0922C34.1909 32.2894 34.2563 32.515 34.2563 32.7689H33.3833C33.3833 32.6439 33.3569 32.5345 33.3042 32.4408C33.2534 32.3451 33.1753 32.2699 33.0698 32.2152C32.9663 32.1605 32.8354 32.1332 32.6772 32.1332C32.5249 32.1332 32.3979 32.1566 32.2964 32.2035C32.1948 32.2484 32.1187 32.3099 32.0679 32.3881C32.0171 32.4642 31.9917 32.5502 31.9917 32.6459C31.9917 32.7181 32.0093 32.7836 32.0444 32.8422C32.0815 32.9008 32.1362 32.9554 32.2085 33.0062C32.2808 33.057 32.3696 33.1049 32.4751 33.1498C32.5806 33.1947 32.7026 33.2386 32.8413 33.2816C33.0737 33.3519 33.2778 33.431 33.4536 33.5189C33.6313 33.6068 33.7798 33.7054 33.8989 33.8148C34.0181 33.9242 34.1079 34.0482 34.1685 34.1869C34.229 34.3256 34.2593 34.4828 34.2593 34.6586C34.2593 34.8441 34.2231 35.0101 34.1509 35.1566C34.0786 35.3031 33.9741 35.4271 33.8374 35.5287C33.7007 35.6302 33.5376 35.7074 33.3481 35.7601C33.1587 35.8129 32.9468 35.8392 32.7124 35.8392C32.5015 35.8392 32.2935 35.8119 32.0884 35.7572C31.8833 35.7006 31.6968 35.6156 31.5288 35.5023C31.3628 35.389 31.23 35.2445 31.1304 35.0687C31.0308 34.8929 30.981 34.6849 30.981 34.4447H31.8628C31.8628 34.5775 31.8833 34.6898 31.9243 34.7816C31.9653 34.8734 32.0229 34.9476 32.0972 35.0043C32.1733 35.0609 32.2632 35.1019 32.3667 35.1273C32.4722 35.1527 32.5874 35.1654 32.7124 35.1654C32.8647 35.1654 32.9897 35.1439 33.0874 35.101C33.187 35.058 33.2603 34.9984 33.3071 34.9222C33.356 34.8461 33.3804 34.7601 33.3804 34.6644ZM36.7642 31.515V35.7806H35.8882V31.515H36.7642ZM38.0767 31.515V32.2035H34.5962V31.515H38.0767ZM41.4399 35.0951V35.7806H39.1694V35.0951H41.4399ZM39.4565 31.515V35.7806H38.5776V31.515H39.4565ZM41.144 33.2523V33.9203H39.1694V33.2523H41.144ZM41.437 31.515V32.2035H39.1694V31.515H41.437ZM41.9526 31.515H43.5435C43.8696 31.515 44.1499 31.5638 44.3843 31.6615C44.6206 31.7592 44.8022 31.9037 44.9292 32.0951C45.0562 32.2865 45.1196 32.5219 45.1196 32.8011C45.1196 33.0297 45.0806 33.226 45.0024 33.39C44.9263 33.5521 44.8179 33.6879 44.6772 33.7972C44.5386 33.9047 44.3755 33.9906 44.188 34.0551L43.9097 34.2015H42.5269L42.521 33.516H43.5493C43.7036 33.516 43.8315 33.4886 43.9331 33.434C44.0347 33.3793 44.1108 33.3031 44.1616 33.2054C44.2144 33.1078 44.2407 32.9945 44.2407 32.8656C44.2407 32.7289 44.2153 32.6107 44.1646 32.5111C44.1138 32.4115 44.0366 32.3353 43.9331 32.2826C43.8296 32.2299 43.6997 32.2035 43.5435 32.2035H42.8315V35.7806H41.9526V31.515ZM44.3374 35.7806L43.3647 33.8793L44.2935 33.8734L45.2778 35.7396V35.7806H44.3374ZM48.9517 34.2601H47.8647V33.5746H48.9517C49.1196 33.5746 49.2563 33.5472 49.3618 33.4926C49.4673 33.4359 49.5444 33.3578 49.5933 33.2582C49.6421 33.1586 49.6665 33.0463 49.6665 32.9213C49.6665 32.7943 49.6421 32.6761 49.5933 32.5668C49.5444 32.4574 49.4673 32.3695 49.3618 32.3031C49.2563 32.2367 49.1196 32.2035 48.9517 32.2035H48.1694V35.7806H47.2905V31.515H48.9517C49.2856 31.515 49.5718 31.5756 49.8101 31.6967C50.0503 31.8158 50.2339 31.9808 50.3608 32.1918C50.4878 32.4027 50.5513 32.6439 50.5513 32.9154C50.5513 33.1908 50.4878 33.4291 50.3608 33.6302C50.2339 33.8314 50.0503 33.9867 49.8101 34.0961C49.5718 34.2054 49.2856 34.2601 48.9517 34.2601ZM54.02 35.0951V35.7806H51.7495V35.0951H54.02ZM52.0366 31.515V35.7806H51.1577V31.515H52.0366ZM53.7241 33.2523V33.9203H51.7495V33.2523H53.7241ZM54.0171 31.515V32.2035H51.7495V31.515H54.0171ZM56.4985 31.515V35.7806H55.6226V31.515H56.4985ZM57.811 31.515V32.2035H54.3306V31.515H57.811ZM61.1743 35.0951V35.7806H58.9038V35.0951H61.1743ZM59.1909 31.515V35.7806H58.312V31.515H59.1909ZM60.8784 33.2523V33.9203H58.9038V33.2523H60.8784ZM61.1714 31.515V32.2035H58.9038V31.515H61.1714ZM61.687 31.515H63.2778C63.604 31.515 63.8843 31.5638 64.1187 31.6615C64.355 31.7592 64.5366 31.9037 64.6636 32.0951C64.7905 32.2865 64.854 32.5219 64.854 32.8011C64.854 33.0297 64.8149 33.226 64.7368 33.39C64.6606 33.5521 64.5522 33.6879 64.4116 33.7972C64.2729 33.9047 64.1099 33.9906 63.9224 34.0551L63.644 34.2015H62.2612L62.2554 33.516H63.2837C63.438 33.516 63.5659 33.4886 63.6675 33.434C63.769 33.3793 63.8452 33.3031 63.896 33.2054C63.9487 33.1078 63.9751 32.9945 63.9751 32.8656C63.9751 32.7289 63.9497 32.6107 63.8989 32.5111C63.8481 32.4115 63.771 32.3353 63.6675 32.2826C63.564 32.2299 63.4341 32.2035 63.2778 32.2035H62.5659V35.7806H61.687V31.515ZM64.0718 35.7806L63.0991 33.8793L64.0278 33.8734L65.0122 35.7396V35.7806H64.0718ZM67.7515 34.6644C67.7515 34.5883 67.7397 34.5199 67.7163 34.4594C67.6948 34.3969 67.6538 34.3402 67.5933 34.2894C67.5327 34.2367 67.4478 34.1849 67.3384 34.1342C67.229 34.0834 67.0874 34.0306 66.9136 33.976C66.7202 33.9135 66.5366 33.8431 66.3628 33.765C66.1909 33.6869 66.0386 33.5961 65.9058 33.4926C65.7749 33.3871 65.6714 33.265 65.5952 33.1263C65.521 32.9877 65.4839 32.8265 65.4839 32.6429C65.4839 32.4652 65.5229 32.3041 65.6011 32.1595C65.6792 32.0131 65.7886 31.8881 65.9292 31.7845C66.0698 31.6791 66.2358 31.598 66.4272 31.5414C66.6206 31.4847 66.8325 31.4564 67.063 31.4564C67.3774 31.4564 67.6519 31.5131 67.8862 31.6263C68.1206 31.7396 68.3022 31.8949 68.4312 32.0922C68.562 32.2894 68.6274 32.515 68.6274 32.7689H67.7544C67.7544 32.6439 67.728 32.5345 67.6753 32.4408C67.6245 32.3451 67.5464 32.2699 67.4409 32.2152C67.3374 32.1605 67.2065 32.1332 67.0483 32.1332C66.896 32.1332 66.769 32.1566 66.6675 32.2035C66.5659 32.2484 66.4897 32.3099 66.439 32.3881C66.3882 32.4642 66.3628 32.5502 66.3628 32.6459C66.3628 32.7181 66.3804 32.7836 66.4155 32.8422C66.4526 32.9008 66.5073 32.9554 66.5796 33.0062C66.6519 33.057 66.7407 33.1049 66.8462 33.1498C66.9517 33.1947 67.0737 33.2386 67.2124 33.2816C67.4448 33.3519 67.6489 33.431 67.8247 33.5189C68.0024 33.6068 68.1509 33.7054 68.27 33.8148C68.3892 33.9242 68.479 34.0482 68.5396 34.1869C68.6001 34.3256 68.6304 34.4828 68.6304 34.6586C68.6304 34.8441 68.5942 35.0101 68.522 35.1566C68.4497 35.3031 68.3452 35.4271 68.2085 35.5287C68.0718 35.6302 67.9087 35.7074 67.7192 35.7601C67.5298 35.8129 67.3179 35.8392 67.0835 35.8392C66.8726 35.8392 66.6646 35.8119 66.4595 35.7572C66.2544 35.7006 66.0679 35.6156 65.8999 35.5023C65.7339 35.389 65.6011 35.2445 65.5015 35.0687C65.4019 34.8929 65.3521 34.6849 65.3521 34.4447H66.2339C66.2339 34.5775 66.2544 34.6898 66.2954 34.7816C66.3364 34.8734 66.394 34.9476 66.4683 35.0043C66.5444 35.0609 66.6343 35.1019 66.7378 35.1273C66.8433 35.1527 66.9585 35.1654 67.0835 35.1654C67.2358 35.1654 67.3608 35.1439 67.4585 35.101C67.5581 35.058 67.6313 34.9984 67.6782 34.9222C67.7271 34.8461 67.7515 34.7601 67.7515 34.6644Z" fill="#8E8F99"/>
</svg>
