<svg width="94" height="45" viewBox="0 0 94 45" fill="none" xmlns="http://www.w3.org/2000/svg">
<path d="M47.5293 21.4433C47.0853 20.8524 46.8729 20.1542 46.9233 19.4513V16.5632C46.9233 15.6779 47.1242 15.0051 47.5259 14.5448C47.9277 14.0845 48.6177 13.8554 49.596 13.8573C50.5153 13.8573 51.1679 14.0532 51.5537 14.4449C51.9746 14.9447 52.1794 15.556 52.1325 16.1725V16.8512H50.488V16.1637C50.4939 15.9386 50.4779 15.7136 50.4404 15.4909C50.4167 15.3386 50.3339 15.1977 50.2055 15.0913C50.0366 14.9766 49.8239 14.921 49.6096 14.9356C49.3843 14.9211 49.1609 14.9797 48.9832 15.1001C48.8399 15.218 48.7444 15.3725 48.7108 15.5408C48.6636 15.7765 48.642 16.0155 48.6461 16.2547V19.7598C48.6202 20.0979 48.6927 20.4363 48.8572 20.744C48.939 20.8482 49.0526 20.9307 49.1854 20.9826C49.3182 21.0344 49.465 21.0536 49.6096 21.0378C49.8203 21.0528 50.0293 20.9958 50.1918 20.8792C50.3258 20.7644 50.412 20.6147 50.437 20.4532C50.4754 20.2206 50.4925 19.9858 50.488 19.751V19.04H52.1325V19.6893C52.1787 20.3319 51.9789 20.9699 51.5639 21.505C51.186 21.9339 50.5425 22.1484 49.596 22.1484C48.6495 22.1484 47.9345 21.9193 47.5293 21.4433Z" fill="#8E8F99"/>
<path d="M54.3763 21.4727C53.961 21.0232 53.7533 20.368 53.7533 19.5013V16.4633C53.7533 15.6054 53.961 14.9561 54.3763 14.5154C54.7917 14.0747 55.4863 13.8554 56.46 13.8573C57.4269 13.8573 58.1181 14.0767 58.5334 14.5154C58.9488 14.9561 59.1599 15.6054 59.1599 16.4633V19.5013C59.1599 20.3592 58.9488 21.0173 58.5266 21.4697C58.1044 21.9222 57.4167 22.1484 56.46 22.1484C55.5033 22.1484 54.7951 21.9193 54.3763 21.4727ZM57.226 20.744C57.3748 20.4625 57.4425 20.154 57.4235 19.845V16.1255C57.4426 15.8224 57.376 15.5199 57.2294 15.2441C57.146 15.1377 57.0296 15.0538 56.8936 15.0019C56.7575 14.9499 56.6073 14.932 56.46 14.9503C56.3123 14.9325 56.1617 14.9506 56.0252 15.0025C55.8887 15.0544 55.7717 15.138 55.6871 15.2441C55.5374 15.5191 55.4695 15.8221 55.4897 16.1255V19.8626C55.469 20.1718 55.5368 20.4805 55.6871 20.7617C55.783 20.8564 55.9013 20.9324 56.034 20.9845C56.1667 21.0365 56.3108 21.0634 56.4566 21.0634C56.6024 21.0634 56.7465 21.0365 56.8792 20.9845C57.0119 20.9324 57.1302 20.8564 57.226 20.7617V20.744Z" fill="#8E8F99"/>
<path d="M61.1378 13.946H62.9083L64.2395 19.5512L65.6014 13.946H67.3242L67.4978 22.0365H66.2244L66.0883 16.4137L64.774 22.0365H63.7526L62.3907 16.3931L62.2648 22.0365H60.9778L61.1378 13.946Z" fill="#8E8F99"/>
<path d="M69.4829 13.946H72.2406C73.8295 13.946 74.6239 14.7118 74.6239 16.2433C74.6239 17.7102 73.7875 18.4427 72.1147 18.4407H71.175V22.0365H69.4727L69.4829 13.946ZM71.8389 17.4037C72.0071 17.4221 72.1779 17.4088 72.3396 17.3647C72.5012 17.3206 72.6499 17.2467 72.7752 17.1481C72.9704 16.8749 73.0565 16.554 73.0203 16.2345C73.0292 15.9877 73.0018 15.7409 72.9386 15.5001C72.9143 15.4196 72.8717 15.3442 72.8133 15.2781C72.7548 15.212 72.6817 15.1567 72.5981 15.1152C72.3618 15.0174 72.1006 14.973 71.8389 14.986H71.1784V17.4037H71.8389Z" fill="#8E8F99"/>
<path d="M77.0787 13.946H78.907L80.783 22.0365H79.1964L78.8253 20.171H77.1945L76.8132 22.0365H75.2028L77.0787 13.946ZM78.6415 19.2339L78.0048 15.8379L77.3681 19.2339H78.6415Z" fill="#8E8F99"/>
<path d="M82.2981 13.946H83.4897L85.7709 18.5612V13.946H87.1838V22.0365H86.0501L83.7553 17.2186V22.0365H82.2947L82.2981 13.946Z" fill="#8E8F99"/>
<path d="M90.4932 18.9516L88.5968 13.9573H90.1936L91.3512 17.1654L92.4373 13.9573H94L92.1274 18.9516V22.0363H90.4932V18.9516Z" fill="#8E8F99"/>
<path d="M50.1579 25.5736V25.9967H48.7688V29.2842H48.1866V25.9967H46.7906V25.5736H50.1579Z" fill="#8E8F99"/>
<path d="M54.5123 29.2844H54.0629C54.0173 29.2869 53.9722 29.2743 53.9369 29.2492C53.9029 29.2277 53.8769 29.1981 53.862 29.164L53.4603 28.2827H51.5332L51.1314 29.164C51.12 29.2009 51.0991 29.235 51.0702 29.2639C51.0345 29.2885 50.9897 29.301 50.9442 29.2991H50.4948L52.1971 25.5887H52.7895L54.5123 29.2844ZM51.6932 27.9066H53.3003L52.6193 26.3966C52.5691 26.2824 52.527 26.1657 52.4933 26.047C52.4695 26.1175 52.4491 26.1851 52.4286 26.2439L52.3674 26.3996L51.6932 27.9066Z" fill="#8E8F99"/>
<path d="M57.4472 28.9202C57.5538 28.925 57.6606 28.925 57.7672 28.9202C57.8593 28.912 57.9504 28.8972 58.0396 28.8761C58.123 28.8584 58.2049 28.8359 58.2848 28.8085C58.3597 28.7821 58.4346 28.7498 58.5129 28.7174V27.883H57.8319C57.8151 27.8838 57.7982 27.8816 57.7824 27.8766C57.7666 27.8715 57.7522 27.8637 57.74 27.8536C57.7288 27.8453 57.72 27.8349 57.7141 27.8232C57.7082 27.8115 57.7054 27.7988 57.706 27.786V27.501H59.027V28.9231C58.9192 28.9897 58.8053 29.0486 58.6865 29.0994C58.5651 29.1511 58.4386 29.1934 58.3086 29.2257C58.1694 29.2611 58.027 29.2866 57.883 29.3021C57.7179 29.3179 57.552 29.3258 57.3859 29.3256C57.0923 29.3278 56.8009 29.2809 56.5279 29.1875C56.273 29.0991 56.0414 28.9672 55.847 28.7997C55.6574 28.6305 55.5082 28.4309 55.4078 28.2121C55.3005 27.9661 55.2474 27.705 55.2512 27.4423C55.2476 27.1778 55.2995 26.9151 55.4044 26.6666C55.5023 26.4467 55.6518 26.2466 55.8436 26.079C56.0379 25.912 56.2696 25.7811 56.5245 25.6941C56.8161 25.5994 57.1255 25.5526 57.437 25.556C57.5955 25.5558 57.7537 25.5666 57.9102 25.5883C58.0486 25.6077 58.1844 25.6392 58.3154 25.6823C58.4345 25.7209 58.5486 25.7701 58.6559 25.8292C58.7602 25.8872 58.8593 25.952 58.9521 26.0231L58.7887 26.2523C58.7759 26.2732 58.7568 26.2908 58.7334 26.3032C58.7101 26.3156 58.6833 26.3224 58.6559 26.3228C58.6182 26.3218 58.5816 26.3116 58.5503 26.2934C58.4993 26.2699 58.4448 26.2406 58.3835 26.2053C58.3111 26.1661 58.2348 26.1327 58.1554 26.1054C58.0539 26.0703 57.9491 26.0427 57.8421 26.0231C57.6995 26.0005 57.5547 25.9896 57.4097 25.9908C57.1851 25.9887 56.9621 26.0236 56.7526 26.0936C56.5632 26.1592 56.3924 26.2595 56.2522 26.3875C56.1111 26.5209 56.0033 26.6779 55.9355 26.8488C55.7834 27.2506 55.7834 27.6838 55.9355 28.0857C56.01 28.2602 56.126 28.4194 56.276 28.5529C56.4156 28.6802 56.5851 28.7804 56.7731 28.8467C56.9896 28.9108 57.219 28.9359 57.4472 28.9202Z" fill="#8E8F99"/>
<path d="M62.8744 28.8611H64.7334V29.2842H62.3058V25.5736H62.888L62.8744 28.8611Z" fill="#8E8F99"/>
<path d="M66.6672 29.2842H66.085V25.5736H66.6672V29.2842Z" fill="#8E8F99"/>
<path d="M68.8325 25.5913C68.8671 25.6083 68.8973 25.6313 68.9211 25.6589L71.4098 28.4559C71.4065 28.4119 71.4065 28.3677 71.4098 28.3237C71.4098 28.2826 71.4098 28.2414 71.4098 28.2032V25.559H71.9171V29.2845H71.6243C71.581 29.2875 71.5374 29.2804 71.4984 29.2639C71.463 29.2454 71.4319 29.2215 71.4064 29.1934L68.9211 26.3993C68.9211 26.4433 68.9211 26.4845 68.9211 26.5256C68.9211 26.5667 68.9211 26.6049 68.9211 26.6402V29.2845H68.4342V25.5737H68.7372C68.7701 25.5737 68.8025 25.5797 68.8325 25.5913Z" fill="#8E8F99"/>
<path d="M76.2037 25.5736V25.982H74.1405V27.2071H75.8122V27.6008H74.1405V28.8671H76.2037V29.2754H73.5413V25.5736H76.2037Z" fill="#8E8F99"/>
<path d="M15.1952 2.65871L41.047 8.99274V31.1883L15.1952 24.8572V2.65871ZM13.5371 0.766724V25.9354L42.7017 33.0832V7.91748L13.5371 0.766724Z" fill="#8E8F99"/>
<path d="M29.168 44.7667L0 37.6129V12.4469L29.168 19.5977V44.7667Z" fill="#8E8F99"/>
<path d="M14.0205 2.37371L39.5352 8.62831L28.6845 17.9941L3.16636 11.7365L14.0205 2.37371ZM13.537 0.766724L0 12.4475L29.168 19.5981L42.7016 7.91736L13.537 0.766724Z" fill="#8E8F99"/>
<path d="M30.8091 43.3509L42.7016 33.0863L30.8091 30.1691V43.3509Z" fill="#8E8F99"/>
</svg>
