<svg width="41" height="47" viewBox="0 0 41 47" fill="none" xmlns="http://www.w3.org/2000/svg">
<path fill-rule="evenodd" clip-rule="evenodd" d="M6 0L13.0078 6.67637L0 6.66866V39.0609H34V26.6758L41 33.3448V0H6ZM33.6924 25.8922L13.8226 6.962H33.6924V25.8922ZM27.5231 34.3227H5.38008V12.5373H6.9453V32.8475H27.5231V34.3227ZM9.7959 45.0611L8.9707 43.3643H8.28955L9.48584 45.6104V46.919H10.1035V45.6104L11.2998 43.3643H10.6211L9.7959 45.0611ZM12.8379 43.3643H12.9844L14.3271 46.919H13.6826L13.395 46.0865H12.0189L11.7319 46.919H11.0898L12.4277 43.3643H12.5718H12.8379ZM12.1864 45.6007H13.2271L12.7062 44.0927L12.1864 45.6007ZM16.4821 45.0117C16.4553 44.9776 16.4295 44.9445 16.4048 44.9122C16.3136 44.7917 16.2428 44.6754 16.1924 44.5631C16.1419 44.4491 16.1167 44.3319 16.1167 44.2115C16.1167 44.026 16.1549 43.8665 16.2314 43.733C16.3079 43.5995 16.4162 43.497 16.5562 43.4254C16.6961 43.3521 16.8597 43.3155 17.0469 43.3155C17.2275 43.3155 17.383 43.3521 17.5132 43.4254C17.645 43.497 17.7459 43.5922 17.8159 43.711C17.8875 43.8298 17.9233 43.96 17.9233 44.1016C17.9233 44.2139 17.903 44.3165 17.8623 44.4093C17.8216 44.502 17.7655 44.5867 17.6938 44.6632C17.6222 44.7397 17.5392 44.8121 17.4448 44.8805L17.1979 45.0602L17.9018 45.8909C17.925 45.8453 17.946 45.7973 17.9648 45.7472C18.0251 45.5909 18.0552 45.4176 18.0552 45.2271H18.563C18.563 45.3997 18.5459 45.5632 18.5117 45.7179C18.4792 45.8725 18.4263 46.0157 18.353 46.1475C18.3233 46.2022 18.2897 46.2545 18.2522 46.3044L18.7729 46.919H18.0918L17.8852 46.676C17.7734 46.7609 17.6518 46.8272 17.5205 46.8751C17.348 46.9369 17.1641 46.9679 16.9688 46.9679C16.7327 46.9679 16.5285 46.9247 16.356 46.8385C16.1834 46.7522 16.05 46.6334 15.9556 46.482C15.8628 46.3306 15.8164 46.1573 15.8164 45.962C15.8164 45.8171 15.8465 45.6902 15.9067 45.5811C15.967 45.4705 16.0492 45.3679 16.1533 45.2735C16.2495 45.1862 16.3591 45.099 16.4821 45.0117ZM16.7738 45.3689L16.7002 45.4224C16.6139 45.4924 16.5496 45.56 16.5073 45.6251C16.4666 45.6886 16.4398 45.7472 16.4268 45.8009C16.4137 45.8546 16.4072 45.9018 16.4072 45.9425C16.4072 46.0466 16.4292 46.141 16.4731 46.2257C16.5187 46.3103 16.5846 46.3778 16.6709 46.4283C16.7588 46.4771 16.8654 46.5015 16.9907 46.5015C17.1258 46.5015 17.2568 46.4714 17.3838 46.4112C17.4474 46.3802 17.5078 46.3429 17.5648 46.2992L16.7738 45.3689ZM16.9143 44.7196L17.1323 44.5728C17.2349 44.5045 17.3081 44.4377 17.3521 44.3726C17.396 44.3059 17.418 44.2229 17.418 44.1236C17.418 44.039 17.3854 43.9609 17.3203 43.8892C17.2552 43.8176 17.1632 43.7818 17.0444 43.7818C16.9614 43.7818 16.8914 43.8013 16.8345 43.8404C16.7775 43.8778 16.7344 43.9283 16.7051 43.9918C16.6774 44.0536 16.6636 44.1228 16.6636 44.1993C16.6636 44.2725 16.6823 44.3482 16.7197 44.4263C16.7572 44.5028 16.8084 44.5834 16.8735 44.668C16.8868 44.685 16.9004 44.7021 16.9143 44.7196ZM23.1333 45.7618H22.5229C22.505 45.9164 22.4676 46.0474 22.4106 46.1549C22.3553 46.2607 22.2731 46.3412 22.1641 46.3966C22.0566 46.4519 21.9159 46.4796 21.7417 46.4796C21.5985 46.4796 21.4756 46.4511 21.373 46.3941C21.2705 46.3372 21.1859 46.2566 21.1191 46.1524C21.054 46.0483 21.0052 45.9237 20.9727 45.7789C20.9417 45.6324 20.9263 45.4696 20.9263 45.2906V44.9903C20.9263 44.8015 20.9434 44.6339 20.9775 44.4874C21.0133 44.3393 21.0662 44.2148 21.1362 44.1138C21.2062 44.0129 21.2933 43.9364 21.3975 43.8844C21.5016 43.8323 21.6237 43.8062 21.7637 43.8062C21.9346 43.8062 22.0729 43.8355 22.1787 43.8941C22.2845 43.9511 22.3643 44.0341 22.418 44.1431C22.4733 44.2522 22.5091 44.3832 22.5254 44.5362H23.1357C23.1113 44.2986 23.0446 44.0878 22.9355 43.9039C22.8281 43.72 22.6768 43.5759 22.4814 43.4718C22.2861 43.3676 22.0469 43.3155 21.7637 43.3155C21.5407 43.3155 21.3397 43.3546 21.1606 43.4327C20.9832 43.5108 20.8311 43.6239 20.7041 43.7721C20.5771 43.9185 20.4795 44.0951 20.4111 44.3018C20.3444 44.5085 20.311 44.7397 20.311 44.9952V45.2906C20.311 45.5461 20.3436 45.7773 20.4087 45.984C20.4754 46.1907 20.5715 46.3673 20.6968 46.5138C20.8221 46.6586 20.9727 46.7709 21.1484 46.8507C21.3242 46.9288 21.522 46.9679 21.7417 46.9679C22.0282 46.9679 22.2715 46.9158 22.4717 46.8116C22.6719 46.7074 22.8273 46.565 22.938 46.3844C23.0487 46.2021 23.1138 45.9945 23.1333 45.7618ZM26.5244 45.2393V45.044C26.5244 44.7755 26.4886 44.5354 26.417 44.3238C26.347 44.1106 26.2469 43.9291 26.1167 43.7794C25.9865 43.628 25.8311 43.5133 25.6504 43.4351C25.4697 43.3554 25.2695 43.3155 25.0498 43.3155C24.8317 43.3155 24.6323 43.3554 24.4517 43.4351C24.2726 43.5133 24.1172 43.628 23.9854 43.7794C23.8551 43.9291 23.7542 44.1106 23.6826 44.3238C23.611 44.5354 23.5752 44.7755 23.5752 45.044V45.2393C23.5752 45.5079 23.611 45.7488 23.6826 45.962C23.7559 46.1752 23.8584 46.3567 23.9902 46.5064C24.1221 46.6562 24.2775 46.7709 24.4565 46.8507C24.6372 46.9288 24.8366 46.9679 25.0547 46.9679C25.2744 46.9679 25.4746 46.9288 25.6553 46.8507C25.8359 46.7709 25.9906 46.6562 26.1191 46.5064C26.2493 46.3567 26.3494 46.1752 26.4194 45.962C26.4894 45.7488 26.5244 45.5079 26.5244 45.2393ZM25.9116 45.0391V45.2393C25.9116 45.4379 25.8921 45.6137 25.853 45.7667C25.8156 45.9197 25.7603 46.0491 25.687 46.1549C25.6138 46.259 25.5243 46.338 25.4185 46.3917C25.3127 46.4438 25.1914 46.4698 25.0547 46.4698C24.9196 46.4698 24.7992 46.4438 24.6934 46.3917C24.5876 46.338 24.4964 46.259 24.4199 46.1549C24.3451 46.0491 24.2881 45.9197 24.249 45.7667C24.21 45.6137 24.1904 45.4379 24.1904 45.2393V45.0391C24.1904 44.8406 24.21 44.6656 24.249 44.5142C24.2881 44.3612 24.3442 44.2335 24.4175 44.1309C24.4923 44.0268 24.5827 43.9486 24.6885 43.8966C24.7943 43.8429 24.9147 43.816 25.0498 43.816C25.1849 43.816 25.3062 43.8429 25.4136 43.8966C25.521 43.9486 25.6113 44.0268 25.6846 44.1309C25.7594 44.2335 25.8156 44.3612 25.853 44.5142C25.8921 44.6656 25.9116 44.8406 25.9116 45.0391Z" fill="#8E8F99"/>
</svg>
